<svg width="18" height="18" viewBox="0 0 18 18" fill="none" xmlns="http://www.w3.org/2000/svg">
<path d="M12.7512 0.678711L11.0496 2.38027L15.6199 6.95059L17.3215 5.24902C18.2004 4.37012 18.2004 2.94629 17.3215 2.06738L15.9363 0.678711C15.0574 -0.200195 13.6336 -0.200195 12.7547 0.678711H12.7512ZM10.2551 3.1748L2.06016 11.3732C1.69453 11.7389 1.42734 12.1924 1.27969 12.6881L0.0351567 16.9174C-0.0527339 17.2162 0.0281255 17.5361 0.246094 17.7541C0.464063 17.9721 0.783985 18.0529 1.0793 17.9686L5.30859 16.724C5.8043 16.5764 6.25781 16.3092 6.62344 15.9436L14.8254 7.74512L10.2551 3.1748Z" fill="#F9AA01"/>
</svg>
