<svg width="25" height="26" viewBox="0 0 25 26" fill="none" xmlns="http://www.w3.org/2000/svg">
<path d="M12.5028 6.11572C8.95566 6.11572 6.09453 8.983 6.09453 12.5378C6.09453 16.0925 8.95566 18.9598 12.5028 18.9598C16.0499 18.9598 18.911 16.0925 18.911 12.5378C18.911 8.983 16.0499 6.11572 12.5028 6.11572ZM12.5028 16.7129C10.2105 16.7129 8.33659 14.8405 8.33659 12.5378C8.33659 10.235 10.205 8.3626 12.5028 8.3626C14.8006 8.3626 16.669 10.235 16.669 12.5378C16.669 14.8405 14.795 16.7129 12.5028 16.7129ZM20.6679 5.85303C20.6679 6.68582 19.9986 7.35094 19.1732 7.35094C18.3422 7.35094 17.6785 6.68024 17.6785 5.85303C17.6785 5.02582 18.3477 4.35511 19.1732 4.35511C19.9986 4.35511 20.6679 5.02582 20.6679 5.85303ZM24.9122 7.3733C24.8173 5.36677 24.36 3.58939 22.8932 2.12501C21.432 0.660626 19.6584 0.202309 17.6562 0.101702C15.5926 -0.0156716 9.40742 -0.0156716 7.34384 0.101702C5.34718 0.196719 3.57362 0.655037 2.1068 2.11942C0.639989 3.5838 0.188232 5.36118 0.0878416 7.36771C-0.0292805 9.43573 -0.0292805 15.6342 0.0878416 17.7022C0.182655 19.7087 0.639989 21.4861 2.1068 22.9505C3.57362 24.4149 5.34161 24.8732 7.34384 24.9738C9.40742 25.0912 15.5926 25.0912 17.6562 24.9738C19.6584 24.8788 21.432 24.4205 22.8932 22.9505C24.3544 21.4861 24.8118 19.7087 24.9122 17.7022C25.0293 15.6342 25.0293 9.44132 24.9122 7.3733ZM22.2462 19.9211C21.8112 21.0166 20.969 21.8606 19.8703 22.3022C18.225 22.9561 14.321 22.8052 12.5028 22.8052C10.6846 22.8052 6.77496 22.9505 5.13525 22.3022C4.04211 21.8662 3.19994 21.0222 2.75934 19.9211C2.1068 18.2723 2.25739 14.3598 2.25739 12.5378C2.25739 10.7157 2.11238 6.79761 2.75934 5.15437C3.19437 4.05888 4.03653 3.21491 5.13525 2.77336C6.78054 2.11942 10.6846 2.27033 12.5028 2.27033C14.321 2.27033 18.2306 2.12501 19.8703 2.77336C20.9635 3.20932 21.8056 4.05329 22.2462 5.15437C22.8988 6.8032 22.7482 10.7157 22.7482 12.5378C22.7482 14.3598 22.8988 18.2779 22.2462 19.9211Z" fill="#1B1426"/>
</svg>
