<svg width="25" height="26" viewBox="0 0 25 26" fill="none" xmlns="http://www.w3.org/2000/svg">
<path d="M23.2143 0.0136719H1.78013C0.797991 0.0136719 0 0.824383 0 1.8196V23.2559C0 24.2511 0.797991 25.0618 1.78013 25.0618H23.2143C24.1964 25.0618 25 24.2511 25 23.2559V1.8196C25 0.824383 24.1964 0.0136719 23.2143 0.0136719ZM7.5558 21.4835H3.85045V9.52974H7.56138V21.4835H7.5558ZM5.70312 7.89714C4.51451 7.89714 3.55469 6.92987 3.55469 5.74456C3.55469 4.55924 4.51451 3.59198 5.70312 3.59198C6.88616 3.59198 7.85156 4.55924 7.85156 5.74456C7.85156 6.93547 6.89174 7.89714 5.70312 7.89714ZM21.4453 21.4835H17.74V15.6688C17.74 14.2822 17.7121 12.4986 15.8147 12.4986C13.8839 12.4986 13.5882 14.0082 13.5882 15.5681V21.4835H9.88281V9.52974H13.4375V11.1623H13.4877C13.9844 10.223 15.1953 9.23341 16.9978 9.23341C20.7478 9.23341 21.4453 11.7103 21.4453 14.9308V21.4835Z" fill="#1B1426"/>
</svg>
